<svg width="372" height="98" viewBox="0 0 372 98" fill="none" xmlns="http://www.w3.org/2000/svg">
<path d="M0.643841 42.1328C0.288258 21.7013 16.5639 4.90855 36.9964 4.6251L333.398 0.513237C353.83 0.229784 370.683 16.563 371.038 36.9944L371.364 55.7363C371.72 76.1677 355.444 92.9605 335.012 93.2439L38.6103 97.3558C18.1778 97.6393 1.3256 81.3061 0.970019 60.8746L0.643841 42.1328Z" fill="#C86000"/>
<mask id="path-2-outside-1_2_15" maskUnits="userSpaceOnUse" x="64" y="31.7363" width="248" height="34" fill="black">
<rect fill="white" x="64" y="31.7363" width="248" height="34"/>
<path d="M91.6051 43.2363H87.9943C87.7808 42.1977 87.4071 41.2853 86.8732 40.4991C86.3491 39.7128 85.7085 39.0528 84.9514 38.5189C84.204 37.9754 83.3741 37.5677 82.4616 37.2959C81.5492 37.0241 80.598 36.8883 79.608 36.8883C77.8026 36.8883 76.167 37.3445 74.7013 38.2569C73.2454 39.1693 72.0855 40.5136 71.2216 42.2899C70.3674 44.0662 69.9403 46.2453 69.9403 48.8272C69.9403 51.4091 70.3674 53.5882 71.2216 55.3645C72.0855 57.1407 73.2454 58.4851 74.7013 59.3975C76.167 60.3099 77.8026 60.7661 79.608 60.7661C80.598 60.7661 81.5492 60.6302 82.4616 60.3584C83.3741 60.0866 84.204 59.6838 84.9514 59.15C85.7085 58.6064 86.3491 57.9415 86.8732 57.1553C87.4071 56.3594 87.7808 55.447 87.9943 54.4181H91.6051C91.3333 55.942 90.8383 57.3058 90.12 58.5093C89.4018 59.7129 88.5088 60.737 87.4411 61.5814C86.3733 62.4162 85.1746 63.052 83.8448 63.4888C82.5247 63.9255 81.1125 64.1439 79.608 64.1439C77.0649 64.1439 74.8033 63.5227 72.8232 62.2803C70.843 61.0379 69.2852 59.2713 68.1495 56.9806C67.0138 54.6899 66.446 51.9721 66.446 48.8272C66.446 45.6823 67.0138 42.9645 68.1495 40.6738C69.2852 38.383 70.843 36.6165 72.8232 35.3741C74.8033 34.1316 77.0649 33.5104 79.608 33.5104C81.1125 33.5104 82.5247 33.7288 83.8448 34.1656C85.1746 34.6024 86.3733 35.243 87.4411 36.0875C88.5088 36.9222 89.4018 37.9414 90.12 39.145C90.8383 40.3389 91.3333 41.7026 91.6051 43.2363ZM97.4399 63.7363V33.9181H107.515C109.845 33.9181 111.757 34.316 113.252 35.112C114.746 35.8982 115.853 36.9805 116.571 38.3588C117.29 39.7371 117.649 41.3047 117.649 43.0616C117.649 44.8184 117.29 46.3763 116.571 47.7352C115.853 49.0941 114.751 50.1618 113.266 50.9383C111.781 51.7051 109.884 52.0885 107.573 52.0885H99.42V48.8272H107.457C109.049 48.8272 110.33 48.5942 111.301 48.1283C112.281 47.6624 112.99 47.0024 113.426 46.1482C113.873 45.2843 114.096 44.2554 114.096 43.0616C114.096 41.8677 113.873 40.8242 113.426 39.9312C112.98 39.0382 112.266 38.3491 111.286 37.8638C110.306 37.3687 109.01 37.1212 107.399 37.1212H101.051V63.7363H97.4399ZM111.475 50.3414L118.813 63.7363H114.62L107.399 50.3414H111.475ZM123.665 63.7363V33.9181H141.661V37.1212H127.276V47.1965H140.729V50.3996H127.276V60.5331H141.894V63.7363H123.665ZM149.392 63.7363H145.607L156.556 33.9181H160.283L171.232 63.7363H167.446L158.536 38.6354H158.303L149.392 63.7363ZM150.79 52.0885H166.049V55.2917H150.79V52.0885ZM170.762 37.1212V33.9181H193.126V37.1212H183.75V63.7363H180.139V37.1212H170.762ZM198.699 63.7363V33.9181H216.694V37.1212H202.309V47.1965H215.763V50.3996H202.309V60.5331H216.927V63.7363H198.699ZM258.379 33.9181V63.7363H254.884L238.636 40.3243H238.345V63.7363H234.734V33.9181H238.228L254.535 57.3883H254.826V33.9181H258.379ZM265.604 63.7363V33.9181H283.483V37.1212H269.215V47.1965H282.144V50.3996H269.215V63.7363H265.604ZM288.037 37.1212V33.9181H310.4V37.1212H301.024V63.7363H297.413V37.1212H288.037Z"/>
</mask>
<path d="M91.6051 43.2363H87.9943C87.7808 42.1977 87.4071 41.2853 86.8732 40.4991C86.3491 39.7128 85.7085 39.0528 84.9514 38.5189C84.204 37.9754 83.3741 37.5677 82.4616 37.2959C81.5492 37.0241 80.598 36.8883 79.608 36.8883C77.8026 36.8883 76.167 37.3445 74.7013 38.2569C73.2454 39.1693 72.0855 40.5136 71.2216 42.2899C70.3674 44.0662 69.9403 46.2453 69.9403 48.8272C69.9403 51.4091 70.3674 53.5882 71.2216 55.3645C72.0855 57.1407 73.2454 58.4851 74.7013 59.3975C76.167 60.3099 77.8026 60.7661 79.608 60.7661C80.598 60.7661 81.5492 60.6302 82.4616 60.3584C83.3741 60.0866 84.204 59.6838 84.9514 59.15C85.7085 58.6064 86.3491 57.9415 86.8732 57.1553C87.4071 56.3594 87.7808 55.447 87.9943 54.4181H91.6051C91.3333 55.942 90.8383 57.3058 90.12 58.5093C89.4018 59.7129 88.5088 60.737 87.4411 61.5814C86.3733 62.4162 85.1746 63.052 83.8448 63.4888C82.5247 63.9255 81.1125 64.1439 79.608 64.1439C77.0649 64.1439 74.8033 63.5227 72.8232 62.2803C70.843 61.0379 69.2852 59.2713 68.1495 56.9806C67.0138 54.6899 66.446 51.9721 66.446 48.8272C66.446 45.6823 67.0138 42.9645 68.1495 40.6738C69.2852 38.383 70.843 36.6165 72.8232 35.3741C74.8033 34.1316 77.0649 33.5104 79.608 33.5104C81.1125 33.5104 82.5247 33.7288 83.8448 34.1656C85.1746 34.6024 86.3733 35.243 87.4411 36.0875C88.5088 36.9222 89.4018 37.9414 90.12 39.145C90.8383 40.3389 91.3333 41.7026 91.6051 43.2363ZM97.4399 63.7363V33.9181H107.515C109.845 33.9181 111.757 34.316 113.252 35.112C114.746 35.8982 115.853 36.9805 116.571 38.3588C117.29 39.7371 117.649 41.3047 117.649 43.0616C117.649 44.8184 117.29 46.3763 116.571 47.7352C115.853 49.0941 114.751 50.1618 113.266 50.9383C111.781 51.7051 109.884 52.0885 107.573 52.0885H99.42V48.8272H107.457C109.049 48.8272 110.33 48.5942 111.301 48.1283C112.281 47.6624 112.99 47.0024 113.426 46.1482C113.873 45.2843 114.096 44.2554 114.096 43.0616C114.096 41.8677 113.873 40.8242 113.426 39.9312C112.98 39.0382 112.266 38.3491 111.286 37.8638C110.306 37.3687 109.01 37.1212 107.399 37.1212H101.051V63.7363H97.4399ZM111.475 50.3414L118.813 63.7363H114.62L107.399 50.3414H111.475ZM123.665 63.7363V33.9181H141.661V37.1212H127.276V47.1965H140.729V50.3996H127.276V60.5331H141.894V63.7363H123.665ZM149.392 63.7363H145.607L156.556 33.9181H160.283L171.232 63.7363H167.446L158.536 38.6354H158.303L149.392 63.7363ZM150.79 52.0885H166.049V55.2917H150.79V52.0885ZM170.762 37.1212V33.9181H193.126V37.1212H183.75V63.7363H180.139V37.1212H170.762ZM198.699 63.7363V33.9181H216.694V37.1212H202.309V47.1965H215.763V50.3996H202.309V60.5331H216.927V63.7363H198.699ZM258.379 33.9181V63.7363H254.884L238.636 40.3243H238.345V63.7363H234.734V33.9181H238.228L254.535 57.3883H254.826V33.9181H258.379ZM265.604 63.7363V33.9181H283.483V37.1212H269.215V47.1965H282.144V50.3996H269.215V63.7363H265.604ZM288.037 37.1212V33.9181H310.4V37.1212H301.024V63.7363H297.413V37.1212H288.037Z" fill="white"/>
<path d="M91.6051 43.2363V44.7363H93.3943L93.0821 42.9745L91.6051 43.2363ZM87.9943 43.2363L86.5251 43.5384L86.7714 44.7363H87.9943V43.2363ZM86.8732 40.4991L85.6251 41.3311L85.6323 41.3417L86.8732 40.4991ZM84.9514 38.5189L84.0691 39.732L84.078 39.7385L84.0869 39.7448L84.9514 38.5189ZM82.4616 37.2959L82.0334 38.7335L82.0334 38.7335L82.4616 37.2959ZM74.7013 38.2569L73.9086 36.9834L73.9048 36.9858L74.7013 38.2569ZM71.2216 42.2899L69.8726 41.6338L69.8698 41.6398L71.2216 42.2899ZM71.2216 55.3645L69.8698 56.0145L69.8727 56.0205L71.2216 55.3645ZM74.7013 59.3975L73.9048 60.6685L73.9086 60.6709L74.7013 59.3975ZM82.4616 60.3584L82.0334 58.9208L82.0334 58.9208L82.4616 60.3584ZM84.9514 59.15L85.8232 60.3706L85.8262 60.3685L84.9514 59.15ZM86.8732 57.1553L85.6275 56.3197L85.6252 56.3232L86.8732 57.1553ZM87.9943 54.4181V52.9181H86.7737L86.5256 54.1133L87.9943 54.4181ZM91.6051 54.4181L93.0818 54.6814L93.3963 52.9181H91.6051V54.4181ZM90.12 58.5093L88.832 57.7407L88.832 57.7407L90.12 58.5093ZM87.4411 61.5814L88.365 62.7632L88.3716 62.7579L87.4411 61.5814ZM83.8448 63.4888L83.3767 62.0637L83.3736 62.0647L83.8448 63.4888ZM72.8232 62.2803L72.0259 63.5509L72.0259 63.5509L72.8232 62.2803ZM68.1495 56.9806L69.4934 56.3143L69.4934 56.3143L68.1495 56.9806ZM68.1495 40.6738L66.8056 40.0075L68.1495 40.6738ZM83.8448 34.1656L83.3736 35.5897L83.3767 35.5907L83.8448 34.1656ZM87.4411 36.0875L86.5105 37.264L86.5172 37.2692L87.4411 36.0875ZM90.12 39.145L88.832 39.9137L88.8347 39.9183L90.12 39.145ZM91.6051 41.7363H87.9943V44.7363H91.6051V41.7363ZM89.4636 42.9342C89.2149 41.7245 88.7711 40.6239 88.1142 39.6564L85.6323 41.3417C86.043 41.9466 86.3467 42.6708 86.5251 43.5384L89.4636 42.9342ZM88.1213 39.667C87.4967 38.7301 86.727 37.9356 85.8158 37.2931L84.0869 39.7448C84.6899 40.17 85.2014 40.6955 85.6252 41.3311L88.1213 39.667ZM85.8336 37.3058C84.9445 36.6592 83.9603 36.1772 82.8899 35.8583L82.0334 38.7335C82.7878 38.9582 83.4634 39.2915 84.0691 39.732L85.8336 37.3058ZM82.8899 35.8583C81.833 35.5435 80.7372 35.3883 79.608 35.3883V38.3883C80.4588 38.3883 81.2655 38.5048 82.0334 38.7335L82.8899 35.8583ZM79.608 35.3883C77.5358 35.3883 75.6233 35.916 73.9086 36.9834L75.4941 39.5303C76.7107 38.7729 78.0693 38.3883 79.608 38.3883V35.3883ZM73.9048 36.9858C72.1768 38.0687 70.8407 39.6435 69.8727 41.6339L72.5705 42.9459C73.3303 41.3837 74.3139 40.2698 75.4979 39.5279L73.9048 36.9858ZM69.8698 41.6398C68.8927 43.6717 68.4403 46.0871 68.4403 48.8272H71.4403C71.4403 46.4034 71.8421 44.4607 72.5734 42.9399L69.8698 41.6398ZM68.4403 48.8272C68.4403 51.5672 68.8927 53.9827 69.8698 56.0145L72.5734 54.7144C71.8421 53.1937 71.4403 51.251 71.4403 48.8272H68.4403ZM69.8727 56.0205C70.8407 58.0109 72.1768 59.5857 73.9048 60.6685L75.4979 58.1264C74.3139 57.3845 73.3303 56.2706 72.5705 54.7084L69.8727 56.0205ZM73.9086 60.6709C75.6233 61.7383 77.5358 62.2661 79.608 62.2661V59.2661C78.0693 59.2661 76.7107 58.8814 75.4941 58.1241L73.9086 60.6709ZM79.608 62.2661C80.7372 62.2661 81.833 62.1108 82.8899 61.796L82.0334 58.9208C81.2655 59.1496 80.4588 59.2661 79.608 59.2661V62.2661ZM82.8899 61.796C83.9553 61.4787 84.936 61.0043 85.8232 60.3706L84.0795 57.9294C83.4719 58.3634 82.7929 58.6946 82.0334 58.9208L82.8899 61.796ZM85.8262 60.3685C86.732 59.7181 87.4984 58.9217 88.1213 57.9874L85.6252 56.3232C85.1997 56.9614 84.6849 57.4947 84.0765 57.9315L85.8262 60.3685ZM88.119 57.9909C88.7707 57.0192 89.2139 55.9231 89.463 54.7229L86.5256 54.1133C86.3476 54.9709 86.0435 55.6995 85.6275 56.3197L88.119 57.9909ZM87.9943 55.9181H91.6051V52.9181H87.9943V55.9181ZM90.1284 54.1547C89.8851 55.5188 89.4481 56.7082 88.832 57.7407L91.4081 59.278C92.2285 57.9033 92.7815 56.3652 93.0818 54.6814L90.1284 54.1547ZM88.832 57.7407C88.2043 58.7924 87.431 59.6769 86.5105 60.4049L88.3716 62.7579C89.5865 61.797 90.5992 60.6334 91.4081 59.278L88.832 57.7407ZM86.5172 60.3997C85.5906 61.1241 84.5471 61.6792 83.3767 62.0637L84.3129 64.9138C85.8021 64.4247 87.1561 63.7083 88.3649 62.7631L86.5172 60.3997ZM83.3736 62.0647C82.2175 62.4472 80.9655 62.6439 79.608 62.6439V65.6439C81.2595 65.6439 82.832 65.4039 84.316 64.9128L83.3736 62.0647ZM79.608 62.6439C77.3212 62.6439 75.3407 62.0891 73.6204 61.0097L72.0259 63.5509C74.2658 64.9563 76.8086 65.6439 79.608 65.6439V62.6439ZM73.6204 61.0097C71.8965 59.9281 70.518 58.3811 69.4934 56.3143L66.8056 57.6468C68.0523 60.1615 69.7896 62.1477 72.0259 63.5509L73.6204 61.0097ZM69.4934 56.3143C68.4813 54.2729 67.946 51.7931 67.946 48.8272H64.946C64.946 52.151 65.5464 55.1069 66.8056 57.6468L69.4934 56.3143ZM67.946 48.8272C67.946 45.8613 68.4813 43.3815 69.4934 41.34L66.8056 40.0075C65.5464 42.5475 64.946 45.5033 64.946 48.8272H67.946ZM69.4934 41.34C70.518 39.2733 71.8965 37.7263 73.6204 36.6446L72.0259 34.1035C69.7896 35.5067 68.0523 37.4928 66.8056 40.0075L69.4934 41.34ZM73.6204 36.6446C75.3407 35.5652 77.3212 35.0104 79.608 35.0104V32.0104C76.8086 32.0104 74.2658 32.698 72.0259 34.1035L73.6204 36.6446ZM79.608 35.0104C80.9655 35.0104 82.2175 35.2071 83.3736 35.5897L84.316 32.7415C82.832 32.2505 81.2595 32.0104 79.608 32.0104V35.0104ZM83.3767 35.5907C84.5438 35.974 85.5851 36.532 86.5105 37.264L88.3716 34.911C87.1616 33.954 85.8054 33.2308 84.3129 32.7405L83.3767 35.5907ZM86.5172 37.2692C87.434 37.986 88.2053 38.8635 88.832 39.9137L91.4081 38.3763C90.5983 37.0193 89.5835 35.8584 88.3649 34.9058L86.5172 37.2692ZM88.8347 39.9183C89.4478 40.9374 89.8846 42.124 90.1281 43.498L93.0821 42.9745C92.782 41.2813 92.2288 39.7404 91.4053 38.3717L88.8347 39.9183ZM97.4399 63.7363H95.9399V65.2363H97.4399V63.7363ZM97.4399 33.9181V32.4181H95.9399V33.9181H97.4399ZM113.252 35.112L112.547 36.436L112.553 36.4395L113.252 35.112ZM116.571 38.3588L115.241 39.052L115.241 39.052L116.571 38.3588ZM116.571 47.7352L115.245 47.0342L115.245 47.0342L116.571 47.7352ZM113.266 50.9383L113.954 52.2712L113.961 52.2676L113.266 50.9383ZM99.42 52.0885H97.92V53.5885H99.42V52.0885ZM99.42 48.8272V47.3272H97.92V48.8272H99.42ZM111.301 48.1283L110.657 46.7735L110.652 46.776L111.301 48.1283ZM113.426 46.1482L112.094 45.4595L112.091 45.4653L113.426 46.1482ZM111.286 37.8638L110.61 39.2028L110.621 39.208L111.286 37.8638ZM101.051 37.1212V35.6212H99.5507V37.1212H101.051ZM101.051 63.7363V65.2363H102.551V63.7363H101.051ZM111.475 50.3414L112.791 49.6207L112.364 48.8414H111.475V50.3414ZM118.813 63.7363V65.2363H121.346L120.129 63.0156L118.813 63.7363ZM114.62 63.7363L113.3 64.4481L113.725 65.2363H114.62V63.7363ZM107.399 50.3414V48.8414H104.886L106.078 51.0532L107.399 50.3414ZM98.9399 63.7363V33.9181H95.9399V63.7363H98.9399ZM97.4399 35.4181H107.515V32.4181H97.4399V35.4181ZM107.515 35.4181C109.687 35.4181 111.335 35.7908 112.547 36.436L113.957 33.788C112.179 32.8413 110.003 32.4181 107.515 32.4181V35.4181ZM112.553 36.4395C113.802 37.0965 114.676 37.9682 115.241 39.052L117.902 37.6656C117.03 35.9928 115.69 34.6999 113.95 33.7844L112.553 36.4395ZM115.241 39.052C115.834 40.1897 116.149 41.5142 116.149 43.0616H119.149C119.149 41.0951 118.745 39.2845 117.901 37.6656L115.241 39.052ZM116.149 43.0616C116.149 44.6093 115.834 45.9205 115.245 47.0342L117.897 48.4362C118.745 46.8321 119.149 45.0275 119.149 43.0616H116.149ZM115.245 47.0342C114.682 48.1003 113.813 48.96 112.571 49.6091L113.961 52.2676C115.69 51.3637 117.024 50.0879 117.897 48.4362L115.245 47.0342ZM112.578 49.6055C111.371 50.2286 109.731 50.5885 107.573 50.5885V53.5885C110.036 53.5885 112.191 53.1816 113.954 52.2711L112.578 49.6055ZM107.573 50.5885H99.42V53.5885H107.573V50.5885ZM100.92 52.0885V48.8272H97.92V52.0885H100.92ZM99.42 50.3272H107.457V47.3272H99.42V50.3272ZM107.457 50.3272C109.175 50.3272 110.703 50.0789 111.95 49.4806L110.652 46.776C109.957 47.1095 108.923 47.3272 107.457 47.3272V50.3272ZM111.945 49.4831C113.182 48.895 114.155 48.0174 114.762 46.8311L112.091 45.4653C111.824 45.9873 111.38 46.4298 110.657 46.7735L111.945 49.4831ZM114.759 46.8369C115.338 45.717 115.596 44.4413 115.596 43.0616H112.596C112.596 44.0695 112.408 44.8516 112.094 45.4595L114.759 46.8369ZM115.596 43.0616C115.596 41.68 115.337 40.3986 114.768 39.2604L112.085 40.602C112.409 41.2498 112.596 42.0553 112.596 43.0616H115.596ZM114.768 39.2604C114.161 38.0471 113.195 37.135 111.952 36.5195L110.621 39.208C111.338 39.5631 111.798 40.0294 112.085 40.602L114.768 39.2604ZM111.962 36.5248C110.697 35.8861 109.143 35.6212 107.399 35.6212V38.6212C108.876 38.6212 109.914 38.8514 110.61 39.2027L111.962 36.5248ZM107.399 35.6212H101.051V38.6212H107.399V35.6212ZM99.5507 37.1212V63.7363H102.551V37.1212H99.5507ZM101.051 62.2363H97.4399V65.2363H101.051V62.2363ZM110.16 51.0621L117.498 64.4569L120.129 63.0156L112.791 49.6207L110.16 51.0621ZM118.813 62.2363H114.62V65.2363H118.813V62.2363ZM115.941 63.0244L108.719 49.6295L106.078 51.0532L113.3 64.4481L115.941 63.0244ZM107.399 51.8414H111.475V48.8414H107.399V51.8414ZM123.665 63.7363H122.165V65.2363H123.665V63.7363ZM123.665 33.9181V32.4181H122.165V33.9181H123.665ZM141.661 33.9181H143.161V32.4181H141.661V33.9181ZM141.661 37.1212V38.6212H143.161V37.1212H141.661ZM127.276 37.1212V35.6212H125.776V37.1212H127.276ZM127.276 47.1965H125.776V48.6965H127.276V47.1965ZM140.729 47.1965H142.229V45.6965H140.729V47.1965ZM140.729 50.3996V51.8996H142.229V50.3996H140.729ZM127.276 50.3996V48.8996H125.776V50.3996H127.276ZM127.276 60.5331H125.776V62.0331H127.276V60.5331ZM141.894 60.5331H143.394V59.0331H141.894V60.5331ZM141.894 63.7363V65.2363H143.394V63.7363H141.894ZM125.165 63.7363V33.9181H122.165V63.7363H125.165ZM123.665 35.4181H141.661V32.4181H123.665V35.4181ZM140.161 33.9181V37.1212H143.161V33.9181H140.161ZM141.661 35.6212H127.276V38.6212H141.661V35.6212ZM125.776 37.1212V47.1965H128.776V37.1212H125.776ZM127.276 48.6965H140.729V45.6965H127.276V48.6965ZM139.229 47.1965V50.3996H142.229V47.1965H139.229ZM140.729 48.8996H127.276V51.8996H140.729V48.8996ZM125.776 50.3996V60.5331H128.776V50.3996H125.776ZM127.276 62.0331H141.894V59.0331H127.276V62.0331ZM140.394 60.5331V63.7363H143.394V60.5331H140.394ZM141.894 62.2363H123.665V65.2363H141.894V62.2363ZM149.392 63.7363V65.2363H150.452L150.806 64.2381L149.392 63.7363ZM145.607 63.7363L144.199 63.2192L143.458 65.2363H145.607V63.7363ZM156.556 33.9181V32.4181H155.509L155.148 33.4011L156.556 33.9181ZM160.283 33.9181L161.691 33.4011L161.33 32.4181H160.283V33.9181ZM171.232 63.7363V65.2363H173.381L172.64 63.2192L171.232 63.7363ZM167.446 63.7363L166.033 64.2381L166.387 65.2363H167.446V63.7363ZM158.536 38.6354L159.949 38.1336L159.595 37.1354H158.536V38.6354ZM158.303 38.6354V37.1354H157.244L156.889 38.1336L158.303 38.6354ZM150.79 52.0885V50.5885H149.29V52.0885H150.79ZM166.049 52.0885H167.549V50.5885H166.049V52.0885ZM166.049 55.2917V56.7917H167.549V55.2917H166.049ZM150.79 55.2917H149.29V56.7917H150.79V55.2917ZM149.392 62.2363H145.607V65.2363H149.392V62.2363ZM147.015 64.2533L157.964 34.4351L155.148 33.4011L144.199 63.2192L147.015 64.2533ZM156.556 35.4181H160.283V32.4181H156.556V35.4181ZM158.875 34.4351L169.824 64.2533L172.64 63.2192L161.691 33.4011L158.875 34.4351ZM171.232 62.2363H167.446V65.2363H171.232V62.2363ZM168.86 63.2345L159.949 38.1336L157.122 39.1372L166.033 64.2381L168.86 63.2345ZM158.536 37.1354H158.303V40.1354H158.536V37.1354ZM156.889 38.1336L147.979 63.2345L150.806 64.2381L159.716 39.1372L156.889 38.1336ZM150.79 53.5885H166.049V50.5885H150.79V53.5885ZM164.549 52.0885V55.2917H167.549V52.0885H164.549ZM166.049 53.7917H150.79V56.7917H166.049V53.7917ZM152.29 55.2917V52.0885H149.29V55.2917H152.29ZM170.762 37.1212H169.262V38.6212H170.762V37.1212ZM170.762 33.9181V32.4181H169.262V33.9181H170.762ZM193.126 33.9181H194.626V32.4181H193.126V33.9181ZM193.126 37.1212V38.6212H194.626V37.1212H193.126ZM183.75 37.1212V35.6212H182.25V37.1212H183.75ZM183.75 63.7363V65.2363H185.25V63.7363H183.75ZM180.139 63.7363H178.639V65.2363H180.139V63.7363ZM180.139 37.1212H181.639V35.6212H180.139V37.1212ZM172.262 37.1212V33.9181H169.262V37.1212H172.262ZM170.762 35.4181H193.126V32.4181H170.762V35.4181ZM191.626 33.9181V37.1212H194.626V33.9181H191.626ZM193.126 35.6212H183.75V38.6212H193.126V35.6212ZM182.25 37.1212V63.7363H185.25V37.1212H182.25ZM183.75 62.2363H180.139V65.2363H183.75V62.2363ZM181.639 63.7363V37.1212H178.639V63.7363H181.639ZM180.139 35.6212H170.762V38.6212H180.139V35.6212ZM198.699 63.7363H197.199V65.2363H198.699V63.7363ZM198.699 33.9181V32.4181H197.199V33.9181H198.699ZM216.694 33.9181H218.194V32.4181H216.694V33.9181ZM216.694 37.1212V38.6212H218.194V37.1212H216.694ZM202.309 37.1212V35.6212H200.809V37.1212H202.309ZM202.309 47.1965H200.809V48.6965H202.309V47.1965ZM215.763 47.1965H217.263V45.6965H215.763V47.1965ZM215.763 50.3996V51.8996H217.263V50.3996H215.763ZM202.309 50.3996V48.8996H200.809V50.3996H202.309ZM202.309 60.5331H200.809V62.0331H202.309V60.5331ZM216.927 60.5331H218.427V59.0331H216.927V60.5331ZM216.927 63.7363V65.2363H218.427V63.7363H216.927ZM200.199 63.7363V33.9181H197.199V63.7363H200.199ZM198.699 35.4181H216.694V32.4181H198.699V35.4181ZM215.194 33.9181V37.1212H218.194V33.9181H215.194ZM216.694 35.6212H202.309V38.6212H216.694V35.6212ZM200.809 37.1212V47.1965H203.809V37.1212H200.809ZM202.309 48.6965H215.763V45.6965H202.309V48.6965ZM214.263 47.1965V50.3996H217.263V47.1965H214.263ZM215.763 48.8996H202.309V51.8996H215.763V48.8996ZM200.809 50.3996V60.5331H203.809V50.3996H200.809ZM202.309 62.0331H216.927V59.0331H202.309V62.0331ZM215.427 60.5331V63.7363H218.427V60.5331H215.427ZM216.927 62.2363H198.699V65.2363H216.927V62.2363ZM258.379 33.9181H259.879V32.4181H258.379V33.9181ZM258.379 63.7363V65.2363H259.879V63.7363H258.379ZM254.884 63.7363L253.652 64.5915L254.1 65.2363H254.884V63.7363ZM238.636 40.3243L239.868 39.4691L239.421 38.8243H238.636V40.3243ZM238.345 40.3243V38.8243H236.845V40.3243H238.345ZM238.345 63.7363V65.2363H239.845V63.7363H238.345ZM234.734 63.7363H233.234V65.2363H234.734V63.7363ZM234.734 33.9181V32.4181H233.234V33.9181H234.734ZM238.228 33.9181L239.46 33.0622L239.012 32.4181H238.228V33.9181ZM254.535 57.3883L253.303 58.2441L253.751 58.8883H254.535V57.3883ZM254.826 57.3883V58.8883H256.326V57.3883H254.826ZM254.826 33.9181V32.4181H253.326V33.9181H254.826ZM256.879 33.9181V63.7363H259.879V33.9181H256.879ZM258.379 62.2363H254.884V65.2363H258.379V62.2363ZM256.117 62.881L239.868 39.4691L237.404 41.1796L253.652 64.5915L256.117 62.881ZM238.636 38.8243H238.345V41.8243H238.636V38.8243ZM236.845 40.3243V63.7363H239.845V40.3243H236.845ZM238.345 62.2363H234.734V65.2363H238.345V62.2363ZM236.234 63.7363V33.9181H233.234V63.7363H236.234ZM234.734 35.4181H238.228V32.4181H234.734V35.4181ZM236.996 34.774L253.303 58.2441L255.767 56.5324L239.46 33.0622L236.996 34.774ZM254.535 58.8883H254.826V55.8883H254.535V58.8883ZM256.326 57.3883V33.9181H253.326V57.3883H256.326ZM254.826 35.4181H258.379V32.4181H254.826V35.4181ZM265.604 63.7363H264.104V65.2363H265.604V63.7363ZM265.604 33.9181V32.4181H264.104V33.9181H265.604ZM283.483 33.9181H284.983V32.4181H283.483V33.9181ZM283.483 37.1212V38.6212H284.983V37.1212H283.483ZM269.215 37.1212V35.6212H267.715V37.1212H269.215ZM269.215 47.1965H267.715V48.6965H269.215V47.1965ZM282.144 47.1965H283.644V45.6965H282.144V47.1965ZM282.144 50.3996V51.8996H283.644V50.3996H282.144ZM269.215 50.3996V48.8996H267.715V50.3996H269.215ZM269.215 63.7363V65.2363H270.715V63.7363H269.215ZM267.104 63.7363V33.9181H264.104V63.7363H267.104ZM265.604 35.4181H283.483V32.4181H265.604V35.4181ZM281.983 33.9181V37.1212H284.983V33.9181H281.983ZM283.483 35.6212H269.215V38.6212H283.483V35.6212ZM267.715 37.1212V47.1965H270.715V37.1212H267.715ZM269.215 48.6965H282.144V45.6965H269.215V48.6965ZM280.644 47.1965V50.3996H283.644V47.1965H280.644ZM282.144 48.8996H269.215V51.8996H282.144V48.8996ZM267.715 50.3996V63.7363H270.715V50.3996H267.715ZM269.215 62.2363H265.604V65.2363H269.215V62.2363ZM288.037 37.1212H286.537V38.6212H288.037V37.1212ZM288.037 33.9181V32.4181H286.537V33.9181H288.037ZM310.4 33.9181H311.9V32.4181H310.4V33.9181ZM310.4 37.1212V38.6212H311.9V37.1212H310.4ZM301.024 37.1212V35.6212H299.524V37.1212H301.024ZM301.024 63.7363V65.2363H302.524V63.7363H301.024ZM297.413 63.7363H295.913V65.2363H297.413V63.7363ZM297.413 37.1212H298.913V35.6212H297.413V37.1212ZM289.537 37.1212V33.9181H286.537V37.1212H289.537ZM288.037 35.4181H310.4V32.4181H288.037V35.4181ZM308.9 33.9181V37.1212H311.9V33.9181H308.9ZM310.4 35.6212H301.024V38.6212H310.4V35.6212ZM299.524 37.1212V63.7363H302.524V37.1212H299.524ZM301.024 62.2363H297.413V65.2363H301.024V62.2363ZM298.913 63.7363V37.1212H295.913V63.7363H298.913ZM297.413 35.6212H288.037V38.6212H297.413V35.6212Z" fill="white" mask="url(#path-2-outside-1_2_15)"/>
</svg>
