<svg width="173" height="48" viewBox="0 0 173 48" fill="none" xmlns="http://www.w3.org/2000/svg">
<rect x="0.039978" width="172.64" height="48" rx="10" fill="#AD9D9D" fill-opacity="0.7"/>
<mask id="path-2-outside-1_0_1" maskUnits="userSpaceOnUse" x="26" y="13" width="80" height="21" fill="black">
<rect fill="white" x="26" y="13" width="80" height="21"/>
<path d="M27.2017 33V14.8182H38.1037V16.7713H29.4034V22.9148H37.2869V24.8679H29.4034V33H27.2017ZM44.0763 14.8182V33H41.8746V14.8182H44.0763ZM48.4908 33V14.8182H50.6925V31.0469H59.1442V33H48.4908ZM59.142 16.7713V14.8182H72.7783V16.7713H67.061V33H64.8593V16.7713H59.142ZM76.1763 33V14.8182H87.1493V16.7713H78.378V22.9148H86.5811V24.8679H78.378V31.0469H87.2914V33H76.1763ZM91.1177 33V14.8182H97.2612C98.6816 14.8182 99.8476 15.0608 100.759 15.5462C101.671 16.0256 102.345 16.6855 102.783 17.5259C103.221 18.3664 103.44 19.3222 103.44 20.3935C103.44 21.4647 103.221 22.4147 102.783 23.2433C102.345 24.0719 101.673 24.7229 100.768 25.1964C99.8624 25.6639 98.7053 25.8977 97.2967 25.8977H92.3251V23.9091H97.2257C98.1963 23.9091 98.9776 23.767 99.5694 23.483C100.167 23.1989 100.599 22.7964 100.866 22.2756C101.138 21.7488 101.274 21.1214 101.274 20.3935C101.274 19.6655 101.138 19.0292 100.866 18.4847C100.593 17.9402 100.158 17.52 99.5605 17.2241C98.9628 16.9222 98.1726 16.7713 97.1902 16.7713H93.3194V33H91.1177ZM99.676 24.8324L104.15 33H101.594L97.1902 24.8324H99.676Z"/>
</mask>
<path d="M27.2017 33V14.8182H38.1037V16.7713H29.4034V22.9148H37.2869V24.8679H29.4034V33H27.2017ZM44.0763 14.8182V33H41.8746V14.8182H44.0763ZM48.4908 33V14.8182H50.6925V31.0469H59.1442V33H48.4908ZM59.142 16.7713V14.8182H72.7783V16.7713H67.061V33H64.8593V16.7713H59.142ZM76.1763 33V14.8182H87.1493V16.7713H78.378V22.9148H86.5811V24.8679H78.378V31.0469H87.2914V33H76.1763ZM91.1177 33V14.8182H97.2612C98.6816 14.8182 99.8476 15.0608 100.759 15.5462C101.671 16.0256 102.345 16.6855 102.783 17.5259C103.221 18.3664 103.44 19.3222 103.44 20.3935C103.44 21.4647 103.221 22.4147 102.783 23.2433C102.345 24.0719 101.673 24.7229 100.768 25.1964C99.8624 25.6639 98.7053 25.8977 97.2967 25.8977H92.3251V23.9091H97.2257C98.1963 23.9091 98.9776 23.767 99.5694 23.483C100.167 23.1989 100.599 22.7964 100.866 22.2756C101.138 21.7488 101.274 21.1214 101.274 20.3935C101.274 19.6655 101.138 19.0292 100.866 18.4847C100.593 17.9402 100.158 17.52 99.5605 17.2241C98.9628 16.9222 98.1726 16.7713 97.1902 16.7713H93.3194V33H91.1177ZM99.676 24.8324L104.15 33H101.594L97.1902 24.8324H99.676Z" fill="white"/>
<path d="M27.2017 33H26.2017V34H27.2017V33ZM27.2017 14.8182V13.8182H26.2017V14.8182H27.2017ZM38.1037 14.8182H39.1037V13.8182H38.1037V14.8182ZM38.1037 16.7713V17.7713H39.1037V16.7713H38.1037ZM29.4034 16.7713V15.7713H28.4034V16.7713H29.4034ZM29.4034 22.9148H28.4034V23.9148H29.4034V22.9148ZM37.2869 22.9148H38.2869V21.9148H37.2869V22.9148ZM37.2869 24.8679V25.8679H38.2869V24.8679H37.2869ZM29.4034 24.8679V23.8679H28.4034V24.8679H29.4034ZM29.4034 33V34H30.4034V33H29.4034ZM28.2017 33V14.8182H26.2017V33H28.2017ZM27.2017 15.8182H38.1037V13.8182H27.2017V15.8182ZM37.1037 14.8182V16.7713H39.1037V14.8182H37.1037ZM38.1037 15.7713H29.4034V17.7713H38.1037V15.7713ZM28.4034 16.7713V22.9148H30.4034V16.7713H28.4034ZM29.4034 23.9148H37.2869V21.9148H29.4034V23.9148ZM36.2869 22.9148V24.8679H38.2869V22.9148H36.2869ZM37.2869 23.8679H29.4034V25.8679H37.2869V23.8679ZM28.4034 24.8679V33H30.4034V24.8679H28.4034ZM29.4034 32H27.2017V34H29.4034V32ZM44.0763 14.8182H45.0763V13.8182H44.0763V14.8182ZM44.0763 33V34H45.0763V33H44.0763ZM41.8746 33H40.8746V34H41.8746V33ZM41.8746 14.8182V13.8182H40.8746V14.8182H41.8746ZM43.0763 14.8182V33H45.0763V14.8182H43.0763ZM44.0763 32H41.8746V34H44.0763V32ZM42.8746 33V14.8182H40.8746V33H42.8746ZM41.8746 15.8182H44.0763V13.8182H41.8746V15.8182ZM48.4908 33H47.4908V34H48.4908V33ZM48.4908 14.8182V13.8182H47.4908V14.8182H48.4908ZM50.6925 14.8182H51.6925V13.8182H50.6925V14.8182ZM50.6925 31.0469H49.6925V32.0469H50.6925V31.0469ZM59.1442 31.0469H60.1442V30.0469H59.1442V31.0469ZM59.1442 33V34H60.1442V33H59.1442ZM49.4908 33V14.8182H47.4908V33H49.4908ZM48.4908 15.8182H50.6925V13.8182H48.4908V15.8182ZM49.6925 14.8182V31.0469H51.6925V14.8182H49.6925ZM50.6925 32.0469H59.1442V30.0469H50.6925V32.0469ZM58.1442 31.0469V33H60.1442V31.0469H58.1442ZM59.1442 32H48.4908V34H59.1442V32ZM59.142 16.7713H58.142V17.7713H59.142V16.7713ZM59.142 14.8182V13.8182H58.142V14.8182H59.142ZM72.7783 14.8182H73.7783V13.8182H72.7783V14.8182ZM72.7783 16.7713V17.7713H73.7783V16.7713H72.7783ZM67.061 16.7713V15.7713H66.061V16.7713H67.061ZM67.061 33V34H68.061V33H67.061ZM64.8593 33H63.8593V34H64.8593V33ZM64.8593 16.7713H65.8593V15.7713H64.8593V16.7713ZM60.142 16.7713V14.8182H58.142V16.7713H60.142ZM59.142 15.8182H72.7783V13.8182H59.142V15.8182ZM71.7783 14.8182V16.7713H73.7783V14.8182H71.7783ZM72.7783 15.7713H67.061V17.7713H72.7783V15.7713ZM66.061 16.7713V33H68.061V16.7713H66.061ZM67.061 32H64.8593V34H67.061V32ZM65.8593 33V16.7713H63.8593V33H65.8593ZM64.8593 15.7713H59.142V17.7713H64.8593V15.7713ZM76.1763 33H75.1763V34H76.1763V33ZM76.1763 14.8182V13.8182H75.1763V14.8182H76.1763ZM87.1493 14.8182H88.1493V13.8182H87.1493V14.8182ZM87.1493 16.7713V17.7713H88.1493V16.7713H87.1493ZM78.378 16.7713V15.7713H77.378V16.7713H78.378ZM78.378 22.9148H77.378V23.9148H78.378V22.9148ZM86.5811 22.9148H87.5811V21.9148H86.5811V22.9148ZM86.5811 24.8679V25.8679H87.5811V24.8679H86.5811ZM78.378 24.8679V23.8679H77.378V24.8679H78.378ZM78.378 31.0469H77.378V32.0469H78.378V31.0469ZM87.2914 31.0469H88.2914V30.0469H87.2914V31.0469ZM87.2914 33V34H88.2914V33H87.2914ZM77.1763 33V14.8182H75.1763V33H77.1763ZM76.1763 15.8182H87.1493V13.8182H76.1763V15.8182ZM86.1493 14.8182V16.7713H88.1493V14.8182H86.1493ZM87.1493 15.7713H78.378V17.7713H87.1493V15.7713ZM77.378 16.7713V22.9148H79.378V16.7713H77.378ZM78.378 23.9148H86.5811V21.9148H78.378V23.9148ZM85.5811 22.9148V24.8679H87.5811V22.9148H85.5811ZM86.5811 23.8679H78.378V25.8679H86.5811V23.8679ZM77.378 24.8679V31.0469H79.378V24.8679H77.378ZM78.378 32.0469H87.2914V30.0469H78.378V32.0469ZM86.2914 31.0469V33H88.2914V31.0469H86.2914ZM87.2914 32H76.1763V34H87.2914V32ZM91.1177 33H90.1177V34H91.1177V33ZM91.1177 14.8182V13.8182H90.1177V14.8182H91.1177ZM100.759 15.5462L100.289 16.4288L100.294 16.4312L100.759 15.5462ZM102.783 17.5259L101.896 17.9881V17.9881L102.783 17.5259ZM102.783 23.2433L101.899 22.7759V22.7759L102.783 23.2433ZM100.768 25.1964L101.227 26.0849L101.231 26.0825L100.768 25.1964ZM92.3251 25.8977H91.3251V26.8977H92.3251V25.8977ZM92.3251 23.9091V22.9091H91.3251V23.9091H92.3251ZM99.5694 23.483L99.1402 22.5798L99.1367 22.5814L99.5694 23.483ZM100.866 22.2756L99.9772 21.8164L99.9752 21.8203L100.866 22.2756ZM99.5605 17.2241L99.1098 18.1168L99.1169 18.1203L99.5605 17.2241ZM93.3194 16.7713V15.7713H92.3194V16.7713H93.3194ZM93.3194 33V34H94.3194V33H93.3194ZM99.676 24.8324L100.553 24.3519L100.268 23.8324H99.676V24.8324ZM104.15 33V34H105.838L105.027 32.5195L104.15 33ZM101.594 33L100.713 33.4746L100.997 34H101.594V33ZM97.1902 24.8324V23.8324H95.515L96.3099 25.3069L97.1902 24.8324ZM92.1177 33V14.8182H90.1177V33H92.1177ZM91.1177 15.8182H97.2612V13.8182H91.1177V15.8182ZM97.2612 15.8182C98.5762 15.8182 99.5663 16.044 100.289 16.4288L101.229 14.6635C100.129 14.0777 98.7871 13.8182 97.2612 13.8182V15.8182ZM100.294 16.4312C101.041 16.8244 101.561 17.344 101.896 17.9881L103.67 17.0638C103.13 16.027 102.3 15.2267 101.225 14.6611L100.294 16.4312ZM101.896 17.9881C102.251 18.6681 102.44 19.4619 102.44 20.3935H104.44C104.44 19.1825 104.192 18.0646 103.67 17.0638L101.896 17.9881ZM102.44 20.3935C102.44 21.3253 102.251 22.1108 101.899 22.7759L103.667 23.7106C104.192 22.7185 104.44 21.6041 104.44 20.3935H102.44ZM101.899 22.7759C101.564 23.4093 101.048 23.9217 100.305 24.3102L101.231 26.0825C102.299 25.5241 103.126 24.7344 103.667 23.7106L101.899 22.7759ZM100.309 24.3078C99.5891 24.6796 98.6034 24.8977 97.2967 24.8977V26.8977C98.8072 26.8977 100.136 26.6483 101.227 26.0849L100.309 24.3078ZM97.2967 24.8977H92.3251V26.8977H97.2967V24.8977ZM93.3251 25.8977V23.9091H91.3251V25.8977H93.3251ZM92.3251 24.9091H97.2257V22.9091H92.3251V24.9091ZM97.2257 24.9091C98.2803 24.9091 99.2264 24.7569 100.002 24.3845L99.1367 22.5814C98.7288 22.7772 98.1123 22.9091 97.2257 22.9091V24.9091ZM99.9987 24.3861C100.768 24.0206 101.376 23.4731 101.756 22.7309L99.9752 21.8203C99.8221 22.1197 99.5666 22.3771 99.1402 22.5798L99.9987 24.3861ZM101.754 22.7347C102.114 22.0373 102.274 21.2454 102.274 20.3935H100.274C100.274 20.9975 100.161 21.4603 99.9772 21.8164L101.754 22.7347ZM102.274 20.3935C102.274 19.5404 102.114 18.7455 101.76 18.0375L99.9712 18.9319C100.162 19.313 100.274 19.7906 100.274 20.3935H102.274ZM101.76 18.0375C101.381 17.2794 100.777 16.7106 100.004 16.3279L99.1169 18.1203C99.5393 18.3294 99.8057 18.601 99.9712 18.9319L101.76 18.0375ZM100.011 16.3314C99.2238 15.9338 98.2616 15.7713 97.1902 15.7713V17.7713C98.0836 17.7713 98.7017 17.9107 99.1098 18.1167L100.011 16.3314ZM97.1902 15.7713H93.3194V17.7713H97.1902V15.7713ZM92.3194 16.7713V33H94.3194V16.7713H92.3194ZM93.3194 32H91.1177V34H93.3194V32ZM98.7989 25.3128L103.273 33.4805L105.027 32.5195L100.553 24.3519L98.7989 25.3128ZM104.15 32H101.594V34H104.15V32ZM102.474 32.5254L98.0704 24.3578L96.3099 25.3069L100.713 33.4746L102.474 32.5254ZM97.1902 25.8324H99.676V23.8324H97.1902V25.8324Z" fill="#AA9D9D" mask="url(#path-2-outside-1_0_1)"/>
</svg>
