<svg width="181" height="59" viewBox="0 0 181 59" fill="none" xmlns="http://www.w3.org/2000/svg">
<g filter="url(#filter0_b_41_23)">
<rect width="174" height="51" rx="25.5" fill="white" fill-opacity="0.13"/>
<rect x="2" y="2" width="170" height="47" rx="23.5" stroke="white" stroke-opacity="0.31" stroke-width="4"/>
</g>
<path d="M42.3636 22.2344C42.2145 21.7159 42.005 21.2578 41.7351 20.8601C41.4652 20.4553 41.1349 20.1143 40.7443 19.8374C40.3608 19.5533 39.9205 19.3366 39.4233 19.1875C38.9332 19.0384 38.3899 18.9638 37.7933 18.9638C36.6783 18.9638 35.6982 19.2408 34.853 19.7947C34.0149 20.3487 33.3615 21.1548 32.8928 22.2131C32.424 23.2642 32.1896 24.5497 32.1896 26.0696C32.1896 27.5895 32.4205 28.8821 32.8821 29.9474C33.3438 31.0128 33.9972 31.826 34.8423 32.3871C35.6875 32.9411 36.6854 33.218 37.8359 33.218C38.88 33.218 39.7713 33.0334 40.5099 32.6641C41.2557 32.2876 41.8239 31.7585 42.2145 31.0767C42.6122 30.3949 42.8111 29.5888 42.8111 28.6584L43.7486 28.7969H38.1236V25.3239H47.2536V28.0724C47.2536 29.9901 46.8487 31.6378 46.0391 33.0156C45.2294 34.3864 44.1143 35.4446 42.6939 36.1903C41.2734 36.929 39.647 37.2983 37.8146 37.2983C35.7692 37.2983 33.9723 36.8473 32.424 35.9453C30.8757 35.0362 29.6683 33.7472 28.8018 32.0781C27.9425 30.402 27.5128 28.4134 27.5128 26.1122C27.5128 24.3437 27.7685 22.767 28.2798 21.3821C28.7983 19.9901 29.5227 18.8111 30.4531 17.8452C31.3835 16.8793 32.4666 16.1442 33.7024 15.6399C34.9382 15.1357 36.277 14.8835 37.7188 14.8835C38.9545 14.8835 40.1051 15.0646 41.1705 15.4268C42.2358 15.782 43.1804 16.2862 44.0043 16.9396C44.8352 17.593 45.5135 18.3707 46.0391 19.2727C46.5646 20.1676 46.902 21.1548 47.0511 22.2344H42.3636ZM53.8054 37H48.8622L56.3942 15.1818H62.3388L69.8601 37H64.9169L59.4517 20.1676H59.2812L53.8054 37ZM53.4964 28.424H65.1726V32.0249H53.4964V28.424ZM72.4862 15.1818H78.1751L84.1836 29.8409H84.4393L90.4478 15.1818H96.1367V37H91.6623V22.799H91.4812L85.8349 36.8935H82.788L77.1417 22.7457H76.9606V37H72.4862V15.1818ZM104.55 15.1818V37H99.9373V15.1818H104.55ZM126.595 15.1818V37H122.61L113.118 23.2678H112.958V37H108.346V15.1818H112.394L121.811 28.9034H122.003V15.1818H126.595ZM144.873 22.2344C144.724 21.7159 144.515 21.2578 144.245 20.8601C143.975 20.4553 143.645 20.1143 143.254 19.8374C142.871 19.5533 142.43 19.3366 141.933 19.1875C141.443 19.0384 140.9 18.9638 140.303 18.9638C139.188 18.9638 138.208 19.2408 137.363 19.7947C136.525 20.3487 135.871 21.1548 135.403 22.2131C134.934 23.2642 134.699 24.5497 134.699 26.0696C134.699 27.5895 134.93 28.8821 135.392 29.9474C135.854 31.0128 136.507 31.826 137.352 32.3871C138.197 32.9411 139.195 33.218 140.346 33.218C141.39 33.218 142.281 33.0334 143.02 32.6641C143.765 32.2876 144.334 31.7585 144.724 31.0767C145.122 30.3949 145.321 29.5888 145.321 28.6584L146.258 28.7969H140.633V25.3239H149.763V28.0724C149.763 29.9901 149.358 31.6378 148.549 33.0156C147.739 34.3864 146.624 35.4446 145.204 36.1903C143.783 36.929 142.157 37.2983 140.324 37.2983C138.279 37.2983 136.482 36.8473 134.934 35.9453C133.385 35.0362 132.178 33.7472 131.312 32.0781C130.452 30.402 130.023 28.4134 130.023 26.1122C130.023 24.3437 130.278 22.767 130.79 21.3821C131.308 19.9901 132.032 18.8111 132.963 17.8452C133.893 16.8793 134.976 16.1442 136.212 15.6399C137.448 15.1357 138.787 14.8835 140.229 14.8835C141.464 14.8835 142.615 15.0646 143.68 15.4268C144.746 15.782 145.69 16.2862 146.514 16.9396C147.345 17.593 148.023 18.3707 148.549 19.2727C149.074 20.1676 149.412 21.1548 149.561 22.2344H144.873Z" fill="white"/>
<defs>
<filter id="filter0_b_41_23" x="-18" y="-18" width="210" height="87" filterUnits="userSpaceOnUse" color-interpolation-filters="sRGB">
<feFlood flood-opacity="0" result="BackgroundImageFix"/>
<feGaussianBlur in="BackgroundImageFix" stdDeviation="9"/>
<feComposite in2="SourceAlpha" operator="in" result="effect1_backgroundBlur_41_23"/>
<feBlend mode="normal" in="SourceGraphic" in2="effect1_backgroundBlur_41_23" result="shape"/>
</filter>
</defs>
</svg>
