<svg width="152" height="51" viewBox="0 0 152 51" fill="none" xmlns="http://www.w3.org/2000/svg">
<g filter="url(#filter0_b_41_29)">
<rect width="152" height="51" rx="25.5" fill="white" fill-opacity="0.13"/>
<rect x="2" y="2" width="148" height="47" rx="23.5" stroke="white" stroke-opacity="0.31" stroke-width="4"/>
</g>
<path d="M33.8963 15.1818H39.5852L45.5938 29.8409H45.8494L51.858 15.1818H57.5469V37H53.0724V22.799H52.8913L47.245 36.8935H44.1982L38.5518 22.7457H38.3707V37H33.8963V15.1818ZM74.824 15.1818H79.437V29.3509C79.437 30.9418 79.057 32.3338 78.2971 33.527C77.5442 34.7202 76.4895 35.6506 75.133 36.3182C73.7765 36.9787 72.1962 37.3089 70.3922 37.3089C68.5811 37.3089 66.9973 36.9787 65.6408 36.3182C64.2843 35.6506 63.2296 34.7202 62.4767 33.527C61.7239 32.3338 61.3475 30.9418 61.3475 29.3509V15.1818H65.9604V28.9567C65.9604 29.7876 66.1415 30.5263 66.5037 31.1726C66.873 31.8189 67.3915 32.3267 68.0591 32.696C68.7267 33.0653 69.5044 33.25 70.3922 33.25C71.2871 33.25 72.0648 33.0653 72.7253 32.696C73.3929 32.3267 73.9078 31.8189 74.2701 31.1726C74.6394 30.5263 74.824 29.7876 74.824 28.9567V15.1818ZM95.0682 21.4567C94.983 20.5973 94.6172 19.9297 93.9709 19.4538C93.3246 18.978 92.4474 18.7401 91.3395 18.7401C90.5866 18.7401 89.951 18.8466 89.4325 19.0597C88.9141 19.2656 88.5163 19.5533 88.2393 19.9226C87.9695 20.2919 87.8345 20.7109 87.8345 21.1797C87.8203 21.5703 87.902 21.9112 88.0795 22.2024C88.2642 22.4936 88.5163 22.7457 88.8359 22.9588C89.1555 23.1648 89.5249 23.3459 89.9439 23.5021C90.3629 23.6513 90.8104 23.7791 91.2862 23.8857L93.2464 24.3544C94.1982 24.5675 95.0717 24.8516 95.8672 25.2067C96.6626 25.5618 97.3516 25.9986 97.9339 26.517C98.5163 27.0355 98.9673 27.6463 99.2869 28.3494C99.6136 29.0526 99.7805 29.8587 99.7876 30.7678C99.7805 32.103 99.4396 33.2607 98.7649 34.2408C98.0973 35.2138 97.1314 35.9702 95.8672 36.5099C94.6101 37.0426 93.0938 37.3089 91.3182 37.3089C89.5568 37.3089 88.0227 37.0391 86.7159 36.4993C85.4162 35.9595 84.4006 35.1605 83.669 34.1023C82.9446 33.0369 82.5646 31.7195 82.5291 30.1499H86.9929C87.0426 30.8814 87.2521 31.4922 87.6214 31.9822C87.9979 32.4652 88.4986 32.831 89.1236 33.0795C89.7557 33.321 90.4695 33.4418 91.2649 33.4418C92.0462 33.4418 92.7244 33.3281 93.2997 33.1009C93.8821 32.8736 94.3331 32.5575 94.6527 32.1527C94.9723 31.7479 95.1321 31.2827 95.1321 30.7571C95.1321 30.267 94.9865 29.8551 94.6953 29.5213C94.4112 29.1875 93.9922 28.9034 93.4382 28.669C92.8913 28.4347 92.2202 28.2216 91.4247 28.0298L89.049 27.4332C87.2095 26.9858 85.7571 26.2862 84.6918 25.3345C83.6264 24.3828 83.0973 23.1009 83.1044 21.4886C83.0973 20.1676 83.4489 19.0135 84.1591 18.0263C84.8764 17.0391 85.8601 16.2685 87.1101 15.7145C88.3601 15.1605 89.7805 14.8835 91.3714 14.8835C92.9908 14.8835 94.4041 15.1605 95.6115 15.7145C96.826 16.2685 97.7706 17.0391 98.4453 18.0263C99.12 19.0135 99.468 20.157 99.4893 21.4567H95.0682ZM107.503 15.1818V37H102.89V15.1818H107.503ZM130.549 22.8203H125.883C125.798 22.2166 125.624 21.6804 125.361 21.2116C125.098 20.7358 124.761 20.331 124.349 19.9972C123.937 19.6634 123.461 19.4077 122.922 19.2301C122.389 19.0526 121.81 18.9638 121.185 18.9638C120.056 18.9638 119.072 19.2443 118.234 19.8054C117.396 20.3594 116.746 21.169 116.284 22.2344C115.823 23.2926 115.592 24.5781 115.592 26.0909C115.592 27.6463 115.823 28.9531 116.284 30.0114C116.753 31.0696 117.407 31.8686 118.245 32.4084C119.083 32.9482 120.052 33.218 121.153 33.218C121.771 33.218 122.343 33.1364 122.868 32.973C123.401 32.8097 123.873 32.5717 124.285 32.2592C124.697 31.9396 125.038 31.5526 125.308 31.098C125.585 30.6435 125.777 30.125 125.883 29.5426L130.549 29.5639C130.429 30.5653 130.127 31.5312 129.644 32.4616C129.168 33.3849 128.525 34.2124 127.716 34.9439C126.913 35.6683 125.954 36.2436 124.839 36.6697C123.731 37.0888 122.478 37.2983 121.078 37.2983C119.132 37.2983 117.392 36.858 115.858 35.9773C114.331 35.0966 113.124 33.8217 112.236 32.1527C111.355 30.4837 110.915 28.4631 110.915 26.0909C110.915 23.7116 111.363 21.6875 112.257 20.0185C113.152 18.3494 114.367 17.0781 115.901 16.2045C117.435 15.3239 119.161 14.8835 121.078 14.8835C122.343 14.8835 123.515 15.0611 124.594 15.4162C125.681 15.7713 126.643 16.2898 127.481 16.9716C128.319 17.6463 129.001 18.4737 129.527 19.4538C130.059 20.4339 130.4 21.5561 130.549 22.8203Z" fill="white"/>
<defs>
<filter id="filter0_b_41_29" x="-18" y="-18" width="188" height="87" filterUnits="userSpaceOnUse" color-interpolation-filters="sRGB">
<feFlood flood-opacity="0" result="BackgroundImageFix"/>
<feGaussianBlur in="BackgroundImageFix" stdDeviation="9"/>
<feComposite in2="SourceAlpha" operator="in" result="effect1_backgroundBlur_41_29"/>
<feBlend mode="normal" in="SourceGraphic" in2="effect1_backgroundBlur_41_29" result="shape"/>
</filter>
</defs>
</svg>
