<svg width="276" height="51" viewBox="0 0 276 51" fill="none" xmlns="http://www.w3.org/2000/svg">
<g filter="url(#filter0_b_41_26)">
<rect width="276" height="51" rx="25.5" fill="white" fill-opacity="0.13"/>
<rect x="2" y="2" width="272" height="47" rx="23.5" stroke="white" stroke-opacity="0.31" stroke-width="4"/>
</g>
<path d="M33.8963 37V15.1818H42.5043C44.1591 15.1818 45.5689 15.4979 46.7337 16.13C47.8984 16.755 48.7862 17.625 49.397 18.7401C50.0149 19.848 50.3239 21.1264 50.3239 22.5753C50.3239 24.0241 50.0114 25.3026 49.3864 26.4105C48.7614 27.5185 47.8558 28.3814 46.6697 28.9993C45.4908 29.6172 44.0632 29.9261 42.3871 29.9261H36.9006V26.2294H41.6413C42.5291 26.2294 43.2607 26.0767 43.8359 25.7713C44.4183 25.4588 44.8516 25.0291 45.1357 24.4822C45.4268 23.9283 45.5724 23.2926 45.5724 22.5753C45.5724 21.8509 45.4268 21.2187 45.1357 20.679C44.8516 20.1321 44.4183 19.7095 43.8359 19.4112C43.2536 19.1058 42.5149 18.9531 41.62 18.9531H38.5092V37H33.8963ZM53.3201 37V15.1818H57.9331V24.1839H67.2974V15.1818H71.8997V37H67.2974V27.9872H57.9331V37H53.3201ZM95.7527 26.0909C95.7527 28.4702 95.3017 30.4943 94.3997 32.1634C93.5048 33.8324 92.2832 35.1072 90.7349 35.9879C89.1937 36.8615 87.4608 37.2983 85.536 37.2983C83.5971 37.2983 81.8571 36.858 80.3159 35.9773C78.7747 35.0966 77.5566 33.8217 76.6618 32.1527C75.7669 30.4837 75.3194 28.4631 75.3194 26.0909C75.3194 23.7116 75.7669 21.6875 76.6618 20.0185C77.5566 18.3494 78.7747 17.0781 80.3159 16.2045C81.8571 15.3239 83.5971 14.8835 85.536 14.8835C87.4608 14.8835 89.1937 15.3239 90.7349 16.2045C92.2832 17.0781 93.5048 18.3494 94.3997 20.0185C95.3017 21.6875 95.7527 23.7116 95.7527 26.0909ZM91.0758 26.0909C91.0758 24.5497 90.845 23.25 90.3833 22.1918C89.9288 21.1335 89.286 20.331 88.4551 19.7841C87.6241 19.2372 86.6511 18.9638 85.536 18.9638C84.421 18.9638 83.448 19.2372 82.617 19.7841C81.786 20.331 81.1397 21.1335 80.6781 22.1918C80.2235 23.25 79.9963 24.5497 79.9963 26.0909C79.9963 27.6321 80.2235 28.9318 80.6781 29.9901C81.1397 31.0483 81.786 31.8509 82.617 32.3977C83.448 32.9446 84.421 33.218 85.536 33.218C86.6511 33.218 87.6241 32.9446 88.4551 32.3977C89.286 31.8509 89.9288 31.0483 90.3833 29.9901C90.845 28.9318 91.0758 27.6321 91.0758 26.0909ZM97.3427 18.9851V15.1818H115.262V18.9851H108.582V37H104.022V18.9851H97.3427ZM137.266 26.0909C137.266 28.4702 136.815 30.4943 135.913 32.1634C135.018 33.8324 133.797 35.1072 132.249 35.9879C130.707 36.8615 128.974 37.2983 127.05 37.2983C125.111 37.2983 123.371 36.858 121.83 35.9773C120.288 35.0966 119.07 33.8217 118.175 32.1527C117.281 30.4837 116.833 28.4631 116.833 26.0909C116.833 23.7116 117.281 21.6875 118.175 20.0185C119.07 18.3494 120.288 17.0781 121.83 16.2045C123.371 15.3239 125.111 14.8835 127.05 14.8835C128.974 14.8835 130.707 15.3239 132.249 16.2045C133.797 17.0781 135.018 18.3494 135.913 20.0185C136.815 21.6875 137.266 23.7116 137.266 26.0909ZM132.589 26.0909C132.589 24.5497 132.359 23.25 131.897 22.1918C131.442 21.1335 130.8 20.331 129.969 19.7841C129.138 19.2372 128.165 18.9638 127.05 18.9638C125.935 18.9638 124.962 19.2372 124.131 19.7841C123.3 20.331 122.653 21.1335 122.192 22.1918C121.737 23.25 121.51 24.5497 121.51 26.0909C121.51 27.6321 121.737 28.9318 122.192 29.9901C122.653 31.0483 123.3 31.8509 124.131 32.3977C124.962 32.9446 125.935 33.218 127.05 33.218C128.165 33.218 129.138 32.9446 129.969 32.3977C130.8 31.8509 131.442 31.0483 131.897 29.9901C132.359 28.9318 132.589 27.6321 132.589 26.0909ZM155.151 22.2344C155.002 21.7159 154.792 21.2578 154.522 20.8601C154.252 20.4553 153.922 20.1143 153.531 19.8374C153.148 19.5533 152.708 19.3366 152.21 19.1875C151.72 19.0384 151.177 18.9638 150.58 18.9638C149.465 18.9638 148.485 19.2408 147.64 19.7947C146.802 20.3487 146.149 21.1548 145.68 22.2131C145.211 23.2642 144.977 24.5497 144.977 26.0696C144.977 27.5895 145.208 28.8821 145.669 29.9474C146.131 31.0128 146.784 31.826 147.629 32.3871C148.475 32.9411 149.472 33.218 150.623 33.218C151.667 33.218 152.558 33.0334 153.297 32.6641C154.043 32.2876 154.611 31.7585 155.002 31.0767C155.399 30.3949 155.598 29.5888 155.598 28.6584L156.536 28.7969H150.911V25.3239H160.041V28.0724C160.041 29.9901 159.636 31.6378 158.826 33.0156C158.017 34.3864 156.901 35.4446 155.481 36.1903C154.061 36.929 152.434 37.2983 150.602 37.2983C148.556 37.2983 146.759 36.8473 145.211 35.9453C143.663 35.0362 142.455 33.7472 141.589 32.0781C140.73 30.402 140.3 28.4134 140.3 26.1122C140.3 24.3437 140.556 22.767 141.067 21.3821C141.585 19.9901 142.31 18.8111 143.24 17.8452C144.171 16.8793 145.254 16.1442 146.49 15.6399C147.725 15.1357 149.064 14.8835 150.506 14.8835C151.742 14.8835 152.892 15.0646 153.958 15.4268C155.023 15.782 155.968 16.2862 156.791 16.9396C157.622 17.593 158.301 18.3707 158.826 19.2727C159.352 20.1676 159.689 21.1548 159.838 22.2344H155.151ZM163.506 37V15.1818H172.114C173.761 15.1818 175.168 15.4766 176.332 16.0661C177.504 16.6484 178.396 17.4759 179.006 18.5483C179.624 19.6136 179.933 20.8672 179.933 22.3089C179.933 23.7578 179.621 25.0043 178.996 26.0483C178.371 27.0852 177.465 27.8807 176.279 28.4347C175.1 28.9886 173.673 29.2656 171.996 29.2656H166.233V25.5582H171.251C172.131 25.5582 172.863 25.4375 173.445 25.196C174.028 24.9545 174.461 24.5923 174.745 24.1094C175.036 23.6264 175.182 23.0263 175.182 22.3089C175.182 21.5845 175.036 20.9737 174.745 20.4766C174.461 19.9794 174.024 19.603 173.435 19.3473C172.852 19.0845 172.117 18.9531 171.229 18.9531H168.119V37H163.506ZM175.288 27.071L180.711 37H175.619L170.313 27.071H175.288ZM186.954 37H182.011L189.543 15.1818H195.487L203.009 37H198.065L192.6 20.1676H192.43L186.954 37ZM186.645 28.424H198.321V32.0249H186.645V28.424ZM205.635 37V15.1818H214.243C215.897 15.1818 217.307 15.4979 218.472 16.13C219.637 16.755 220.525 17.625 221.135 18.7401C221.753 19.848 222.062 21.1264 222.062 22.5753C222.062 24.0241 221.75 25.3026 221.125 26.4105C220.5 27.5185 219.594 28.3814 218.408 28.9993C217.229 29.6172 215.801 29.9261 214.125 29.9261H208.639V26.2294H213.38C214.267 26.2294 214.999 26.0767 215.574 25.7713C216.157 25.4588 216.59 25.0291 216.874 24.4822C217.165 23.9283 217.311 23.2926 217.311 22.5753C217.311 21.8509 217.165 21.2187 216.874 20.679C216.59 20.1321 216.157 19.7095 215.574 19.4112C214.992 19.1058 214.253 18.9531 213.358 18.9531H210.248V37H205.635ZM225.058 37V15.1818H229.671V24.1839H239.036V15.1818H243.638V37H239.036V27.9872H229.671V37H225.058Z" fill="white"/>
<defs>
<filter id="filter0_b_41_26" x="-18" y="-18" width="312" height="87" filterUnits="userSpaceOnUse" color-interpolation-filters="sRGB">
<feFlood flood-opacity="0" result="BackgroundImageFix"/>
<feGaussianBlur in="BackgroundImageFix" stdDeviation="9"/>
<feComposite in2="SourceAlpha" operator="in" result="effect1_backgroundBlur_41_26"/>
<feBlend mode="normal" in="SourceGraphic" in2="effect1_backgroundBlur_41_26" result="shape"/>
</filter>
</defs>
</svg>
